<svg width="140" height="140" viewBox="0 0 140 140" fill="none" xmlns="http://www.w3.org/2000/svg">
<rect width="140" height="140"/>
<mask id="mask0_0_1" style="mask-type:luminance" maskUnits="userSpaceOnUse" x="0" y="0" width="140" height="140">
<path d="M0.25 0.25H139.75V139.75H0.25V0.25Z" fill="white" stroke="white" stroke-width="0.5"/>
</mask>
<g mask="url(#mask0_0_1)">
<path d="M13.7628 51.7873L13.857 51.3733C14.1386 50.1354 14.4211 48.5398 14.6687 46.8342L14.6697 46.8272L14.6698 46.8273C15.9608 39.4061 20.9454 33.2104 27.8295 30.2929L27.8317 30.292C29.2154 29.7217 30.6358 29.1509 32.057 28.6155M13.7628 51.7873L32.1458 28.8492M13.7628 51.7873L14.1705 51.6688C20.0815 49.9518 23.6516 48.3373 29.4882 44.2615L29.4889 44.2611C31.1282 43.1083 32.4802 41.3084 33.5444 39.3409C34.61 37.3708 35.3965 35.2152 35.897 33.3301M13.7628 51.7873L35.6555 33.2654M32.057 28.6155C32.0572 28.6155 32.0574 28.6154 32.0576 28.6153L32.1458 28.8492M32.057 28.6155C32.0568 28.6156 32.0567 28.6157 32.0565 28.6157L32.1458 28.8492M32.057 28.6155C33.0639 28.2307 33.8955 27.9929 34.5547 27.9428C35.2156 27.8925 35.7558 28.0286 36.1023 28.4559C36.4359 28.8674 36.5364 29.4881 36.4883 30.2719C36.4397 31.0647 36.235 32.0789 35.897 33.3301M32.1458 28.8492C36.1518 27.3178 37.0026 28.2794 35.6555 33.2654M35.897 33.3301C35.897 33.3299 35.8971 33.3298 35.8971 33.3296L35.6555 33.2654M35.897 33.3301C35.8969 33.3303 35.8969 33.3305 35.8968 33.3306L35.6555 33.2654M14.1783 104.098L14.1774 104.098L12.4758 105.701L11.0007 107.09C-5.60614 79.1393 -2.90756 45.7756 18.3243 21.1146C26.0971 13.5924 35.4955 7.70081 45.4598 3.83171L45.46 3.83161C49.9503 2.08233 52.489 2.39375 53.822 3.76565C54.4967 4.46 54.8986 5.45701 55.0759 6.69234C55.253 7.927 55.2026 9.37965 54.9905 10.9598C54.3273 15.8998 52.1082 21.9475 50.5436 26.2116C50.1005 27.4191 49.71 28.4836 49.4221 29.3394L49.4219 29.3398C48.9475 30.7589 48.4909 32.1646 48.0398 33.5533C43.8951 46.313 40.2142 57.6444 27.4848 64.8515L27.4848 64.8514L27.4806 64.8539C25.7183 65.8969 24.0097 66.8281 22.3169 67.7506C21.8178 68.0227 21.32 68.294 20.8226 68.5672C18.6405 69.7657 16.4704 70.9985 14.2456 72.4825L14.1343 72.5567V72.6905C14.1343 77.5523 14.3844 83.1011 17.3025 91.7882L17.303 91.7896C18.7948 96.1463 17.5464 100.958 14.1783 104.098Z" fill="#FFE600" stroke="#F8DE00" stroke-width="0.5"/>
<path d="M38.997 82.4564C41.189 53.0656 55.0957 27.3745 73.042 4.75052L73.0421 4.75041C74.3966 3.04083 76.1665 1.75149 78.2128 1.0198L78.2128 1.01985L78.2176 1.01801C80.2288 0.251657 82.4147 0.0768147 84.5685 0.495586L84.5685 0.495669L84.5749 0.496744L84.7838 0.531749C91.237 1.82349 95.3705 8.13436 94.1202 14.6259C92.6662 22.0006 91.0563 30.0132 88.4447 37.2713C85.834 44.5266 82.2317 51.0004 76.8109 55.3217C75.539 56.1734 74.2581 57.0076 72.9757 57.8428L72.9748 57.8433C71.6909 58.6795 70.4054 59.5167 69.1284 60.3719C68.3323 60.8842 67.3055 60.1111 67.5896 59.1957C67.5896 59.1955 67.5897 59.1952 67.5898 59.195L68.4048 56.6323L68.5712 56.1091L68.0673 56.327C62.957 58.5374 57.918 60.9258 52.9505 63.4566L52.8636 63.5009L52.8297 63.5923C51.7294 66.5515 50.6997 69.5121 49.7762 72.5094L49.776 72.5098C49.3664 73.8472 48.5473 75.014 47.4189 75.8731C44.5575 78.0037 41.7603 80.1982 38.997 82.4564ZM63.0223 41.1528L62.7501 41.6238L63.2848 41.5237C65.37 41.1331 67.4915 40.8134 69.653 40.493C70.63 40.3788 71.5621 39.9267 72.3047 39.2553C73.0523 38.5794 73.5748 37.6793 73.7988 36.704L73.7991 36.7026C74.579 33.2129 75.3588 29.7593 76.1738 26.2704C76.5905 24.5112 74.2892 23.4879 73.2783 24.9674C69.623 30.2438 66.2162 35.6271 63.0223 41.1528Z" fill="#FFE600" stroke="#F8DE00" stroke-width="0.5"/>
<path d="M75.2247 102.503L75.2248 102.503L75.2274 102.497C75.4114 102.097 75.7548 101.776 76.1489 101.543C83.1974 97.9143 90.4518 94.5022 97.7378 91.9084L97.7378 91.9084L97.7398 91.9077C98.3451 91.6866 98.8379 91.6357 99.2383 91.7016C99.635 91.767 99.9575 91.9497 100.223 92.2261C100.765 92.7905 101.075 93.7535 101.212 94.9035C101.487 97.1917 101.058 100.017 100.745 101.189L100.745 101.189C99.5774 105.597 97.9571 110.221 95.0123 113.919L94.8913 114.07L95.0085 114.225C96.1906 115.786 96.3021 117.574 95.9505 119.414C95.671 120.877 95.1059 122.343 94.5714 123.729C94.4295 124.097 94.2898 124.459 94.1581 124.814L94.1576 124.815C93.1178 127.666 91.5163 130.952 89.3581 133.648C87.1987 136.347 84.5015 138.432 81.2723 138.935C73.9272 140.071 66.6502 140 59.2277 139.007C58.8567 138.938 58.5502 138.841 58.279 138.629C57.9852 138.4 57.7613 138.142 57.6021 137.855C57.4461 137.54 57.3824 137.224 57.3824 136.868C57.3824 136.526 57.474 136.209 57.6375 135.88C63.7349 124.84 69.6923 113.796 75.2247 102.503ZM77.7991 113.718V113.749L77.8065 113.779C77.8436 113.927 77.8903 114.083 78.0331 114.234C78.1534 114.398 78.3502 114.486 78.466 114.525L78.4752 114.528L78.4845 114.53C78.6564 114.574 78.7891 114.574 78.9278 114.574H78.9354H78.9619L78.9878 114.568C82.1446 113.891 85.3012 113.178 88.4562 112.466L88.4562 112.466L88.4593 112.465C88.7309 112.401 88.9862 112.169 89.2111 111.894C89.4454 111.609 89.6837 111.23 89.9122 110.798C90.3697 109.934 90.8027 108.83 91.093 107.76C91.3811 106.699 91.5383 105.638 91.4148 104.875C91.353 104.494 91.2145 104.146 90.9442 103.926C90.6632 103.697 90.2926 103.647 89.8653 103.753L89.8646 103.753C87.9051 104.245 86.184 104.728 84.4358 105.218C83.1508 105.578 81.8511 105.943 80.4314 106.318L80.4235 106.32L80.4159 106.323L80.4092 106.325C80.3009 106.361 80.1473 106.412 79.9991 106.561C79.9048 106.656 79.8123 106.794 79.7629 106.94C79.4939 107.68 79.164 108.791 78.8283 109.944C78.772 110.138 78.7155 110.333 78.6591 110.527C78.3773 111.499 78.0967 112.466 77.8468 113.249C77.7988 113.395 77.799 113.572 77.7991 113.699C77.7991 113.706 77.7991 113.712 77.7991 113.718ZM82.8042 129.208L82.8064 129.208C83.0695 129.162 83.3259 128.969 83.5571 128.735C83.797 128.493 84.0459 128.168 84.2911 127.797C84.7823 127.053 85.2767 126.095 85.6712 125.158C86.0643 124.225 86.3665 123.293 86.4617 122.605C86.5082 122.269 86.512 121.948 86.4186 121.712C86.3693 121.587 86.2864 121.469 86.1543 121.397C86.0224 121.325 85.8746 121.316 85.7303 121.343L85.7776 121.589L85.731 121.343C81.9833 122.054 78.1655 122.622 74.3833 123.013C74.1789 123.017 73.9451 123.114 73.795 123.265L73.7864 123.273C73.685 123.375 73.554 123.506 73.4648 123.686L73.4647 123.686L73.4612 123.693C73.1624 124.346 72.7698 125.234 72.3599 126.16C71.9513 127.083 71.5255 128.046 71.1582 128.854C71.0629 129.049 71.0631 129.242 71.0632 129.405L71.0632 129.424C71.0632 129.627 71.1579 129.816 71.2219 129.944C71.2251 129.951 71.2282 129.957 71.2312 129.963C71.3401 130.182 71.5501 130.286 71.6786 130.35C71.685 130.354 71.6913 130.357 71.6973 130.36C71.86 130.441 72.0578 130.502 72.2723 130.456C75.7839 130.205 79.2945 129.778 82.8042 129.208Z" fill="#FFE600" stroke="#F8DE00" stroke-width="0.5"/>
<path d="M124.236 84.1549L124.236 84.1547C121.899 84.6526 119.564 85.1857 117.23 85.7897C116.767 85.9229 116.38 86.1187 116.025 86.4414C115.696 86.7731 115.434 87.1692 115.271 87.5951C115.271 87.5956 115.271 87.5961 115.27 87.5966L115.037 87.5072C108.656 104.851 99.8636 120.807 89.618 136.121L124.236 84.1549ZM124.236 84.1549L124.245 84.1527C124.616 84.0593 125.032 84.0867 125.481 84.1555C125.879 84.2566 126.264 84.4212 126.579 84.6749C126.905 84.9368 127.169 85.2663 127.367 85.6321C127.558 85.9835 127.658 86.4084 127.692 86.8117C127.975 92.4835 127.938 98.6367 126.775 104.388C125.611 110.139 123.324 115.473 119.118 119.523L119.118 119.522L119.114 119.526C117.28 121.369 115.376 123.069 113.331 124.663C113.261 124.709 113.204 124.724 113.158 124.724C113.111 124.724 113.052 124.708 112.978 124.659C112.953 124.642 112.938 124.62 112.899 124.503C112.899 124.503 112.898 124.499 112.897 124.487C112.897 124.476 112.898 124.462 112.9 124.446C112.905 124.412 112.916 124.383 112.921 124.373C113.279 123.654 113.6 122.936 114.027 121.899L114.3 121.236L113.674 121.586C110.171 123.541 106.703 125.283 103.058 126.918L102.992 126.948L102.952 127.008C101.296 129.52 100.355 130.864 98.7887 133.102C98.6469 133.305 98.4999 133.515 98.3469 133.734L98.3468 133.734L98.3434 133.739C98.3143 133.783 98.2955 133.803 98.2799 133.816C98.2669 133.826 98.2474 133.838 98.2073 133.848L98.1848 133.854L98.1636 133.864C95.6221 135.034 92.9749 136.027 90.2927 136.807L90.2926 136.807L90.2831 136.81C90.2339 136.826 90.1427 136.832 90.0334 136.804C89.966 136.787 89.9385 136.765 89.8306 136.657C89.8193 136.645 89.8108 136.631 89.8048 136.603C89.7978 136.57 89.797 136.533 89.797 136.477V136.437L89.7843 136.398C89.7843 136.398 89.7802 136.383 89.7871 136.351C89.7936 136.321 89.8075 136.287 89.826 136.259L124.236 84.1549ZM111.238 112.957L110.915 113.539L111.541 113.314C113.918 112.458 115.09 112.03 117.433 111.103L117.558 111.053L117.586 110.921C118.475 106.671 119.044 102.348 119.222 97.9881L118.743 97.8786C116.513 103.033 113.965 108.047 111.238 112.957Z" fill="#FFE600" stroke="#F8DE00" stroke-width="0.5"/>
<path d="M23.0307 120.067C25.9353 116.893 28.3674 114.281 30.6577 111.821C34.7454 107.432 38.3817 103.527 43.4474 97.7761L43.8752 98.0105C42.8854 101.447 42.5344 102.579 42.0631 104.099C41.7579 105.083 41.4023 106.23 40.7902 108.27L40.7901 108.271C40.2878 109.933 39.7607 111.423 39.2317 112.919C39.1236 113.224 39.0155 113.53 38.9076 113.837L38.9065 113.84C37.9654 116.415 41.048 118.56 43.1188 116.804L43.125 116.799L43.1251 116.799C43.7907 116.271 44.4219 115.743 45.0556 115.213C57.8952 100.747 68.8311 82.6538 77.365 65.0838C77.3818 65.0251 77.3834 64.9603 77.3834 64.8556C77.3834 64.8564 77.3831 64.8443 77.3694 64.8191C77.3562 64.7948 77.3363 64.7691 77.3144 64.7471C77.3009 64.7335 77.2644 64.7139 77.2081 64.7139C77.1516 64.7139 77.115 64.7336 77.1015 64.7471L77.089 64.7597L77.0748 64.7704C76.6498 65.0906 76.223 65.4122 75.8313 65.6983M23.0307 120.067L75.6835 65.4967M23.0307 120.067C22.6079 120.524 22.06 120.813 21.4512 120.878L21.4481 120.878C20.9111 120.941 20.3006 120.782 19.8177 120.426C18.2543 119.275 17.0321 117.769 15.8282 116.169M23.0307 120.067L15.8282 116.169M75.8313 65.6983C75.8312 65.6984 75.8311 65.6985 75.831 65.6986L75.6835 65.4967M75.8313 65.6983C75.8315 65.6982 75.8316 65.6981 75.8318 65.698L75.6835 65.4967M75.8313 65.6983C73.7313 67.2455 71.9463 69.2146 70.6164 71.4647M75.6835 65.4967C73.5564 67.0637 71.7484 69.0581 70.4012 71.3375M70.6164 71.4647C70.6165 71.4645 70.6166 71.4644 70.6167 71.4643L70.4012 71.3375M70.6164 71.4647C65.7928 79.6596 60.7567 87.7115 55.5793 95.6913L55.1416 95.4527C56.4683 92.5027 57.5831 89.6854 58.6911 86.876L58.7682 86.6805C59.8498 83.9377 60.9297 81.1994 62.1962 78.3585L62.1972 78.3563C62.6936 77.2709 61.4083 76.2559 60.485 76.9492M70.6164 71.4647L70.4012 71.3375M70.4012 71.3375L60.485 76.9492M60.485 76.9492C60.4856 76.9488 60.4862 76.9483 60.4868 76.9478L60.3329 76.7508L60.4833 76.9505C60.4839 76.9501 60.4844 76.9496 60.485 76.9492ZM60.485 76.9492C59.848 77.4469 59.1409 77.9797 58.2962 78.6161L58.286 78.6237M60.485 76.9492L16.0179 112.579M58.286 78.6237L58.135 78.425L58.2852 78.6243L58.286 78.6237ZM58.286 78.6237C43.8968 89.5541 29.862 100.947 16.1815 112.768M16.1815 112.768C16.1817 112.768 16.1819 112.768 16.1821 112.767L16.0179 112.579M16.1815 112.768C16.1814 112.768 16.1814 112.768 16.1814 112.768L16.0179 112.579M16.1815 112.768C15.6995 113.188 15.4095 113.77 15.3448 114.385M16.0179 112.579C15.4861 113.042 15.167 113.683 15.0961 114.36M15.3448 114.385C15.3449 114.385 15.3449 114.385 15.3449 114.384L15.0961 114.36M15.3448 114.385C15.28 115.038 15.442 115.651 15.8282 116.169M15.3448 114.385C15.3448 114.385 15.3448 114.385 15.3448 114.386L15.0961 114.36M15.0961 114.36L15.8282 116.169M55.3696 95.5552C55.6568 95.1126 55.9435 94.6698 56.2298 94.2268C56.0241 94.7005 55.8137 95.1774 55.5976 95.6578L55.3696 95.5552Z" fill="#FFE600" stroke="#F8DE00" stroke-width="0.5"/>
<path d="M57.1487 106.542C58.4758 105.192 59.8373 103.913 61.1947 102.638L61.1963 102.636C62.5618 101.354 63.923 100.075 65.2483 98.7258L65.2703 98.7034L65.2971 98.6872C69.5899 96.0854 73.9189 93.5903 78.3546 91.2019L78.6805 91.5616C77.8599 92.7802 77.3229 93.4635 76.6103 94.3226C76.3195 94.6841 76.725 95.211 77.1574 95.0083C79.3945 93.8669 81.6663 92.8328 83.9322 91.8014L83.9354 91.7999L83.9358 91.7997C85.6939 91.0032 87.1444 89.6514 88.1123 87.9847C93.4978 78.6136 94.706 64.2548 93.2221 53.4948C93.1944 53.3324 93.1104 53.1585 92.9901 53.0074C92.8704 52.857 92.7306 52.7492 92.5745 52.697C92.4175 52.6444 92.2545 52.64 92.0765 52.6677C91.9089 52.7264 91.7643 52.8126 91.6125 52.9337C91.4388 53.0974 91.2701 53.2593 91.104 53.4188C90.7391 53.769 90.3866 54.1074 90.0204 54.4264C87.6354 56.6469 85.7416 59.2896 84.4087 62.2496C76.4513 79.9859 62.7818 97.246 49.7293 111.32M57.1487 106.542L49.5443 111.152M57.1487 106.542C54.7092 108.141 52.3049 109.81 49.9358 111.551M57.1487 106.542L50.076 111.758M49.7293 111.32C49.7287 111.321 49.7281 111.322 49.7276 111.322L49.5443 111.152M49.7293 111.32C49.7297 111.32 49.7301 111.32 49.7305 111.319L49.5443 111.152M49.7293 111.32C49.6926 111.362 49.6865 111.396 49.6876 111.42C49.689 111.449 49.7021 111.484 49.7302 111.515C49.7856 111.577 49.8629 111.594 49.9358 111.551M49.5443 111.152C49.2252 111.508 49.6861 112.007 50.076 111.758M49.9358 111.551C49.9332 111.553 49.9306 111.554 49.928 111.556L50.076 111.758M49.9358 111.551C49.9377 111.549 49.9395 111.548 49.9414 111.547L50.076 111.758M77.1997 81.2785L77.5465 81.6235C79.8829 80.0944 81.0863 79.312 83.4185 77.8565C83.5427 77.7903 83.654 77.67 83.709 77.5043L83.7099 77.5017C84.6329 74.6127 85.4855 71.651 86.1962 68.6881C86.2852 68.3282 86.0645 68.054 85.8017 67.9612C85.5405 67.869 85.1985 67.9399 85.0246 68.2602L85.0234 68.2626C82.6535 72.7397 79.9644 77.0057 77.1997 81.2785Z" fill="#FFE600" stroke="#F8DE00" stroke-width="0.5"/>
<path d="M135.782 76.9288L135.782 76.9286L135.772 76.9302L135.77 76.9304C133.219 77.322 130.663 77.7142 128.108 78.1778L128.107 78.1778C126.747 78.4264 125.657 77.0585 126.185 75.7771C130.327 65.9113 129.644 53.7695 125.655 43.7145L125.176 43.8476C126.2 50.0193 126.27 55.9758 125.317 62.1813L125.542 62.2159L125.317 62.1813C124.154 69.7598 122.222 74.2758 117.503 80.0424C117.245 80.3332 116.932 80.5484 116.602 80.6395C114.651 81.1383 112.701 81.6726 110.753 82.2063L110.751 82.2067C110.751 82.2068 110.751 82.2068 110.751 82.2069C109.356 82.5799 108.145 81.2113 108.674 79.8687L108.674 79.8682C111.749 72.0023 111.243 62.543 109.394 54.4354L108.9 54.5023C109.395 65.3583 106.709 76.9731 99.9162 85.2816L99.916 85.2814L99.9094 85.2903C99.7317 85.5284 99.4595 85.713 99.1513 85.8059L99.1512 85.8057L99.1408 85.8093C97.6152 86.3439 96.1244 86.8787 94.598 87.4493L94.5979 87.4494C93.0278 88.037 91.6169 86.2757 92.5546 84.8292C99.8865 73.7093 103.814 57.3942 100.243 45.0195L100.244 45.0194L100.241 45.01C100.151 44.7397 100.149 44.466 100.212 44.1812C100.277 43.8883 100.403 43.6175 100.57 43.4488L100.578 43.4409L100.585 43.4324C102.218 41.4713 103.817 39.472 105.311 37.3998L105.312 37.3985C105.462 37.187 105.644 37.031 105.905 36.8663C106.154 36.7429 106.405 36.6794 106.664 36.6469C106.887 36.6188 107.157 36.6746 107.407 36.8003L107.419 36.8062L107.431 36.8109C107.674 36.9023 107.879 37.0519 108.024 37.256L108.03 37.2644L108.037 37.2723C112.731 42.8382 115.798 48.3638 117.986 55.6667L118.475 55.6076C118.974 45.7261 116.904 38.1221 111.485 30.1339C111.294 29.8462 111.173 29.5022 111.173 29.1692C111.173 28.8209 111.267 28.4784 111.45 28.2034L111.45 28.2035L111.455 28.1959C112.768 26.0565 114.046 23.8449 115.219 21.6326C115.343 21.4142 115.532 21.1919 115.72 21.0331C115.932 20.8829 116.18 20.7877 116.443 20.7217C116.669 20.6649 116.942 20.6906 117.208 20.7573C117.456 20.8197 117.696 20.943 117.871 21.1186L117.877 21.125L117.884 21.1309C133.172 34.4266 145.335 55.686 137.175 75.8331C137.049 76.117 136.861 76.3688 136.644 76.5566C136.359 76.7779 136.049 76.899 135.782 76.9288Z" fill="#FFE600" stroke="#F8DE00" stroke-width="0.5"/>
<path d="M60.3975 121.517C60.3975 124.622 57.9194 127.108 54.8689 127.108C51.8183 127.108 49.3401 124.622 49.3401 121.517C49.3401 118.413 51.8183 115.927 54.8689 115.927C57.9184 115.927 60.3975 118.447 60.3975 121.517Z" fill="#FFE600" stroke="#F8DE00" stroke-width="0.5"/>
</g>
</svg>
